<svg xmlns="http://www.w3.org/2000/svg" width="1100" height="650" viewBox="0 0 1100 650" role="img" aria-label="Signal Versus Evidence Chart">
<defs><linearGradient id="bg" x1="0" x2="1" y1="0" y2="1"><stop offset="0" stop-color="#0b1020"/><stop offset="1" stop-color="#172536"/></linearGradient></defs>
<rect width="1100" height="650" fill="url(#bg)"/>
<text x="55" y="58" fill="#ffbd59" font-family="Segoe UI, Arial" font-size="30" font-weight="800">Signal Versus Evidence Chart</text>
<text x="55" y="84" fill="#aeb8c5" font-family="Segoe UI, Arial" font-size="14">Higher-right items have stronger recurrence and stronger available evidence, but are still not treated as proven.</text>
<line x1="150" y1="540" x2="960" y2="540" stroke="#60778d" stroke-width="2"/>
<line x1="150" y1="540" x2="150" y2="125" stroke="#60778d" stroke-width="2"/>
<text x="535" y="585" fill="#b9c2cf" font-size="14" text-anchor="middle">Evidence level</text>
<text x="70" y="335" fill="#b9c2cf" font-size="14" text-anchor="middle" transform="rotate(-90 70 335)">Recurrence / account types</text>
<line x1="150" y1="540" x2="150" y2="548" stroke="#60778d"/>
<text x="150" y="566" fill="#dce4ed" font-size="12" text-anchor="middle">0</text>
<line x1="312" y1="540" x2="312" y2="548" stroke="#60778d"/>
<text x="312" y="566" fill="#dce4ed" font-size="12" text-anchor="middle">1</text>
<line x1="474" y1="540" x2="474" y2="548" stroke="#60778d"/>
<text x="474" y="566" fill="#dce4ed" font-size="12" text-anchor="middle">2</text>
<line x1="636" y1="540" x2="636" y2="548" stroke="#60778d"/>
<text x="636" y="566" fill="#dce4ed" font-size="12" text-anchor="middle">3</text>
<line x1="798" y1="540" x2="798" y2="548" stroke="#60778d"/>
<text x="798" y="566" fill="#dce4ed" font-size="12" text-anchor="middle">4</text>
<line x1="960" y1="540" x2="960" y2="548" stroke="#60778d"/>
<text x="960" y="566" fill="#dce4ed" font-size="12" text-anchor="middle">5</text>
<circle cx="150" cy="476" r="8" fill="#7f8b99" opacity="0.78" stroke="#fff" stroke-width="1"/>
<circle cx="150" cy="476" r="8" fill="#7f8b99" opacity="0.78" stroke="#fff" stroke-width="1"/>
<circle cx="150" cy="476" r="8" fill="#7f8b99" opacity="0.78" stroke="#fff" stroke-width="1"/>
<circle cx="150" cy="476" r="8" fill="#7f8b99" opacity="0.78" stroke="#fff" stroke-width="1"/>
<circle cx="150" cy="476" r="8" fill="#7f8b99" opacity="0.78" stroke="#fff" stroke-width="1"/>
<circle cx="150" cy="476" r="8" fill="#7f8b99" opacity="0.78" stroke="#fff" stroke-width="1"/>
<circle cx="150" cy="476" r="8" fill="#7f8b99" opacity="0.78" stroke="#fff" stroke-width="1"/>
<circle cx="150" cy="476" r="8" fill="#7f8b99" opacity="0.78" stroke="#fff" stroke-width="1"/>
<circle cx="150" cy="476" r="8" fill="#7f8b99" opacity="0.78" stroke="#fff" stroke-width="1"/>
<circle cx="150" cy="476" r="8" fill="#7f8b99" opacity="0.78" stroke="#fff" stroke-width="1"/>
<circle cx="150" cy="476" r="8" fill="#7f8b99" opacity="0.78" stroke="#fff" stroke-width="1"/>
<circle cx="150" cy="476" r="8" fill="#7f8b99" opacity="0.78" stroke="#fff" stroke-width="1"/>
<circle cx="150" cy="476" r="8" fill="#7f8b99" opacity="0.78" stroke="#fff" stroke-width="1"/>
<circle cx="150" cy="476" r="8" fill="#7f8b99" opacity="0.78" stroke="#fff" stroke-width="1"/>
<circle cx="150" cy="476" r="8" fill="#7f8b99" opacity="0.78" stroke="#fff" stroke-width="1"/>
<circle cx="150" cy="476" r="8" fill="#7f8b99" opacity="0.78" stroke="#fff" stroke-width="1"/>
<circle cx="150" cy="476" r="8" fill="#7f8b99" opacity="0.78" stroke="#fff" stroke-width="1"/>
<circle cx="150" cy="476" r="8" fill="#7f8b99" opacity="0.78" stroke="#fff" stroke-width="1"/>
<circle cx="150" cy="476" r="8" fill="#7f8b99" opacity="0.78" stroke="#fff" stroke-width="1"/>
<circle cx="150" cy="476" r="8" fill="#7f8b99" opacity="0.78" stroke="#fff" stroke-width="1"/>
<circle cx="150" cy="476" r="8" fill="#7f8b99" opacity="0.78" stroke="#fff" stroke-width="1"/>
<circle cx="150" cy="476" r="8" fill="#7f8b99" opacity="0.78" stroke="#fff" stroke-width="1"/>
<circle cx="150" cy="476" r="8" fill="#7f8b99" opacity="0.78" stroke="#fff" stroke-width="1"/>
<circle cx="150" cy="476" r="8" fill="#7f8b99" opacity="0.78" stroke="#fff" stroke-width="1"/>
<circle cx="150" cy="476" r="8" fill="#7f8b99" opacity="0.78" stroke="#fff" stroke-width="1"/>
<circle cx="150" cy="476" r="8" fill="#7f8b99" opacity="0.78" stroke="#fff" stroke-width="1"/>
<circle cx="150" cy="476" r="8" fill="#7f8b99" opacity="0.78" stroke="#fff" stroke-width="1"/>
<circle cx="150" cy="476" r="8" fill="#7f8b99" opacity="0.78" stroke="#fff" stroke-width="1"/>
<text x="55" y="622" fill="#7f8b99" font-family="Segoe UI, Arial" font-size="12">Generated by ResearchHive from extracted report data. Visuals indicate research patterns, not proof.</text>
</svg>
